<svg xmlns="http://www.w3.org/2000/svg" width="32" height="32" viewBox="0 0 32 32"><g fill="#17867f"><path d="M29.334 3H25V1c0-.553-.447-1-1-1s-1 .447-1 1v2h-6V1c0-.553-.448-1-1-1s-1 .447-1 1v2H9V1c0-.553-.448-1-1-1S7 .447 7 1v2H2.667C1.194 3 0 4.193 0 5.666v23.667C0 30.806 1.194 32 2.667 32h26.667C30.807 32 32 30.806 32 29.333V5.666C32 4.193 30.807 3 29.334 3zM30 29.333c0 .368-.3.667-.666.667H2.667C2.3 30 2 29.7 2 29.333V5.666C2 5.3 2.3 5 2.667 5H7v2c0 .553.448 1 1 1s1-.447 1-1V5h6v2c0 .553.448 1 1 1s1-.447 1-1V5h6v2c0 .553.447 1 1 1s1-.447 1-1V5h4.334c.367 0 .666.3.666.666v23.667z"/><path d="M7 12h4v3H7zM7 17h4v3H7zM7 22h4v3H7zM14 22h4v3h-4zM14 17h4v3h-4zM14 12h4v3h-4zM21 22h4v3h-4zM21 17h4v3h-4zM21 12h4v3h-4z"/></g></svg>
