<svg xmlns="http://www.w3.org/2000/svg" width="16" height="18" xmlns:xlink="http://www.w3.org/1999/xlink"><defs><path id="a" d="M0 17.31h15.754V.116H0z"/></defs><g fill="none" fill-rule="evenodd"><g transform="translate(0 .148)"><mask id="b" fill="#fff"><use xlink:href="#a"/></mask><path fill="#00CA9D" d="M14.465 16.215H1.29a.196.196 0 0 1-.194-.193v-8.69h13.562v8.69a.196.196 0 0 1-.193.193zM1.29 2.958h1.013v.563c0 .82.664 1.486 1.48 1.486.82 0 1.483-.665 1.483-1.482V2.96h5.046v.563c0 .818.665 1.483 1.482 1.483s1.482-.665 1.482-1.482V2.96h1.19c.104 0 .192.09.192.193v3.143H1.096V3.15c0-.103.09-.192.194-.192zm2.05-1.362a.444.444 0 0 1 .887 0V3.52a.444.444 0 0 1-.887 0V1.597zm8.01 0a.444.444 0 0 1 .886 0V3.52a.444.444 0 0 1-.887 0V1.597zm3.114.266h-1.19v-.266c0-.817-.664-1.482-1.48-1.482-.818 0-1.483.665-1.483 1.482v.266H5.27v-.266C5.268.78 4.602.114 3.784.114c-.817 0-1.48.665-1.48 1.482v.266H1.29C.58 1.862 0 2.44 0 3.152v12.87c0 .71.58 1.29 1.29 1.29h13.175a1.29 1.29 0 0 0 1.29-1.29V3.152a1.29 1.29 0 0 0-1.29-1.29z" mask="url(#b)"/></g><path fill="#00CA9D" d="M3.194 10.998H4.55V9.642H3.195zm2.67 0H7.22V9.642H5.865zm2.67 0H9.89V9.642H8.534zm2.67 0h1.356V9.642h-1.356zm-8.01 2.942H4.55v-1.357H3.195zm2.67 0H7.22v-1.357H5.865zm2.67 0H9.89v-1.357H8.534zm2.67 0h1.356v-1.357h-1.356z"/></g></svg>
