<?xml version="1.0" encoding="UTF-8"?>
<svg width="15px" height="11px" viewBox="0 0 15 11" version="1.1" xmlns="http://www.w3.org/2000/svg" xmlns:xlink="http://www.w3.org/1999/xlink">
    <!-- Generator: Sketch 50.2 (55047) - http://www.bohemiancoding.com/sketch -->
    <title>left-arrow (1)</title>
    <desc>Created with Sketch.</desc>
    <defs></defs>
    <g id="результаты-поиска-NEW" stroke="none" stroke-width="1" fill="none" fill-rule="evenodd">
        <g id="1400" transform="translate(-443.000000, -403.000000)" fill="#1E201D" fill-rule="nonzero">
            <g id="left-arrow-(1)" transform="translate(443.000000, 403.000000)">
                <path d="M4.89307742,0.165439682 C5.10454123,-0.0551465607 5.43745386,-0.0551465607 5.64891768,0.165439682 C5.85323744,0.378573687 5.85323744,0.733300212 5.64891768,0.945937401 L1.81637416,4.94381464 L14.4632439,4.94381464 C14.7580549,4.94381464 15,5.18824805 15,5.49577707 C15,5.80330608 14.7580549,6.05568854 14.4632439,6.05568854 L1.81637416,6.05568854 L5.64891768,10.0461135 C5.85323744,10.2666998 5.85323744,10.6219231 5.64891768,10.8345603 C5.43745386,11.0551466 5.10454123,11.0551466 4.89307742,10.8345603 L0.153239826,5.89024886 C-0.0510799419,5.67711485 -0.0510799419,5.32238833 0.153239826,5.10975114 L4.89307742,0.165439682 Z" id="Shape"></path>
            </g>
        </g>
    </g>
</svg>