<?xml version="1.0" encoding="UTF-8"?>
<svg width="28px" height="28px" viewBox="0 0 28 28" version="1.1" xmlns="http://www.w3.org/2000/svg" xmlns:xlink="http://www.w3.org/1999/xlink">
    <!-- Generator: Sketch 50.2 (55047) - http://www.bohemiancoding.com/sketch -->
    <title>1</title>
    <desc>Created with Sketch.</desc>
    <defs></defs>
    <g id="1" stroke="none" stroke-width="1" fill="none" fill-rule="evenodd">
        <path d="M13.9756114,7 C10.7504337,7 8.42065576,9.30022021 8.0511947,11.7709812 C7.82082486,13.4181551 8.37718975,15.0237338 9.53338553,16.2383166 C10.5504901,17.2781992 11.106855,18.6674823 11.106855,20.0983607 L11.1025084,22.352826 C11.1025084,23.2637632 11.8892431,24 12.8628817,24 L15.1318072,24 C16.1054458,24 16.8921805,23.2637632 16.8921805,22.352826 L16.8965271,20.0983607 C16.8965271,18.625887 17.4050794,17.2781992 18.3787179,16.3256667 C19.4436351,15.2857842 20,13.9422559 20,12.5529728 C19.9956534,9.47076095 17.2616416,7 13.9756114,7 L13.9756114,7 Z M16.0098206,22.352826 C16.0098206,22.7854172 15.6403595,23.1348177 15.1752732,23.1348177 L12.9063477,23.1348177 C12.4412614,23.1348177 12.0718003,22.7895767 12.0718003,22.352826 L12.0718003,21.3545388 L16.005474,21.3545388 L16.005474,22.352826 L16.0098206,22.352826 Z M17.7310744,15.7183753 C16.5748787,16.845608 15.9707012,18.4054319 15.9707012,20.0983607 L15.9707012,20.4893565 L12.0370275,20.4893565 L12.0370275,20.0983607 C12.0370275,18.492782 11.3415714,16.8913629 10.1853756,15.67678 C9.16827108,14.6368975 8.75099741,13.2933692 8.93355464,11.9040861 C9.25954969,9.82432102 11.280719,7.86934182 13.979958,7.86934182 C16.8052485,7.86934182 19.0741741,9.99486176 19.0741741,12.5529728 C19.0741741,13.7218008 18.6090878,14.8490335 17.7310744,15.7183753 L17.7310744,15.7183753 Z" id="Shape" fill="#999999"></path>
        <rect id="Rectangle-path" fill="#999999" x="13.5195918" y="3" width="1" height="2.24489796"></rect>
        <polygon id="Shape" fill="#999999" points="19.7963265 7.32816327 20.4653061 7.99714286 22.1040816 6.42122449 21.4306122 5.7522449"></polygon>
        <rect id="Rectangle-path" fill="#999999" x="22.6563265" y="13.1110204" width="2.34367347" height="1"></rect>
        <rect id="Rectangle-path" fill="#999999" x="3" y="13.1110204" width="2.34367347" height="1"></rect>
        <polygon id="Shape" fill="#999999" points="6.55142857 5.7477551 5.87795918 6.41673469 7.51673469 7.99265306 8.18571429 7.32367347"></polygon>
    </g>
</svg>